<?xml version="1.0" encoding="UTF-8" standalone="no"?>
<!-- Created with Inkscape (http://www.inkscape.org/) -->

<svg
   version="1.1"
   id="svg2"
   width="744.96484"
   height="781.11316"
   viewBox="0 0 744.96482 781.11312"
   sodipodi:docname="logo.svg"
   inkscape:version="1.1.2 (b8e25be8, 2022-02-05)"
   xmlns:inkscape="http://www.inkscape.org/namespaces/inkscape"
   xmlns:sodipodi="http://sodipodi.sourceforge.net/DTD/sodipodi-0.dtd"
   xmlns="http://www.w3.org/2000/svg"
   xmlns:svg="http://www.w3.org/2000/svg">
  <defs
     id="defs6" />
  <sodipodi:namedview
     id="namedview4"
     pagecolor="#ffffff"
     bordercolor="#000000"
     borderopacity="0.25"
     inkscape:showpageshadow="2"
     inkscape:pageopacity="0.0"
     inkscape:pagecheckerboard="0"
     inkscape:deskcolor="#d1d1d1"
     inkscape:pageshadow="2"
     showgrid="false"
     inkscape:zoom="0.48749996"
     inkscape:cx="220.51284"
     inkscape:cy="267.69233"
     inkscape:window-width="1237"
     inkscape:window-height="803"
     inkscape:window-x="79"
     inkscape:window-y="53"
     inkscape:window-maximized="0"
     inkscape:current-layer="g8"
     fit-margin-top="0"
     fit-margin-left="0"
     fit-margin-right="0"
     fit-margin-bottom="0" />
  <g
     id="g8"
     inkscape:groupmode="layer"
     inkscape:label="ink_ext_XXXXXX"
     transform="matrix(1.3333333,0,0,-1.3333333,-333.02252,896.63953)">
    <path
       d="m 781.372,521.785 -8.861,4.957 -2.299,8.654 -2.082,0.445 -0.651,-2.54 -3.964,6.636 -5.914,2.096 -6.845,-4.78 -2.541,-8.243 5.467,-6.293 9.375,-3.227 11.837,-7.31 6.478,9.605"
       style="fill:#eac1a4;fill-opacity:1;fill-rule:nonzero;stroke:none;stroke-width:0.1"
       id="path40" />
    <path
       d="m 489.66,320.208 -0.005,-51.979 c 0.241,1.042 0.4,2.125 0.4,3.269 v 82.343 h -0.391 l -0.004,-33.633"
       style="fill:#d9a3a3;fill-opacity:1;fill-rule:nonzero;stroke:none;stroke-width:0.1"
       id="path60" />
    <path
       d="m 489.684,390.106 -0.005,50.921 c -0.249,-1.055 -0.408,-2.154 -0.408,-3.311 v -81.5 h 0.391 v 33.89 h 0.022"
       style="fill:#d9a3a3;fill-opacity:1;fill-rule:nonzero;stroke:none;stroke-width:0.1"
       id="path62" />
    <path
       d="m 474.383,205.961 c -1.882,-0.196 -3.777,-0.775 -5.587,-1.809 -5.574,-3.18 -11.113,-6.194 -16.752,-8.115 5.556,1.847 11.056,4.835 16.827,7.967 1.849,1.003 3.705,1.638 5.512,1.957"
       style="fill:#d9a3a3;fill-opacity:1;fill-rule:nonzero;stroke:none;stroke-width:0.1"
       id="path64" />
    <path
       d="m 527.282,441.937 c -5.638,1.92 -11.178,4.935 -16.751,8.116 -1.81,1.032 -3.704,1.612 -5.584,1.808 1.806,-0.319 3.661,-0.954 5.509,-1.957 5.771,-3.132 11.271,-6.12 16.826,-7.967"
       style="fill:#d9a3a3;fill-opacity:1;fill-rule:nonzero;stroke:none;stroke-width:0.1"
       id="path66" />
    <path
       d="M 489.647,195.13 489.64,87.5641 c 0.136,7e-4 0.277,7e-4 0.415,0.0019 v 104.249 c 0,1.158 -0.159,2.258 -0.408,3.315"
       style="fill:#d9a3a3;fill-opacity:1;fill-rule:nonzero;stroke:none;stroke-width:0.1"
       id="path68" />
    <path
       d="m 338.577,375.581 c 1.548,-2.485 2.199,-5.159 2.146,-7.754 0.302,2.95 -0.318,6.058 -2.098,8.911 -5.736,9.202 -9.401,19.42 -9.357,29.061 -0.363,-9.976 3.347,-20.646 9.309,-30.218"
       style="fill:#d9a3a3;fill-opacity:1;fill-rule:nonzero;stroke:none;stroke-width:0.1"
       id="path70" />
    <path
       d="m 404.094,403.211 c -0.456,-9.258 -5.106,-18.06 -10.179,-26.949 -1.315,-2.304 -1.894,-4.743 -1.878,-7.117 0.157,1.994 0.731,4.011 1.829,5.934 5.295,9.266 10.128,18.438 10.228,28.132"
       style="fill:#d9a3a3;fill-opacity:1;fill-rule:nonzero;stroke:none;stroke-width:0.1"
       id="path72" />
    <path
       d="m 489.671,514.129 -0.005,51.979 -0.004,58.69 c -0.13,-0.006 -0.261,-0.005 -0.391,-0.011 V 517.398 c 0,-1.143 0.159,-2.226 0.4,-3.269"
       style="fill:#d9a3a3;fill-opacity:1;fill-rule:nonzero;stroke:none;stroke-width:0.1"
       id="path74" />
    <path
       d="m 474.383,205.961 c -1.807,-0.319 -3.663,-0.954 -5.512,-1.957 -5.771,-3.132 -11.271,-6.12 -16.827,-7.967 -8.366,-2.849 -16.952,-3.287 -26.194,1.738 -18.82,10.23 -25.787,35.551 -14.932,53.996 13.387,22.749 37.724,19.945 57.407,7.67 8.495,-5.297 19.216,-0.343 21.33,8.788 l 0.005,51.979 0.004,33.633 h -0.002 v 2.375 h -0.391 v -1.915 h -86.778 c -6.661,1.768 -10.983,8.179 -10.456,14.844 -0.016,2.374 0.563,4.813 1.878,7.117 5.073,8.889 9.723,17.691 10.179,26.949 0.049,4.785 -1.049,9.696 -3.825,14.81 -10.219,18.826 -35.537,25.807 -53.989,14.963 -11.693,-6.872 -16.629,-16.641 -17.012,-27.185 -0.044,-9.641 3.621,-19.859 9.357,-29.061 1.78,-2.853 2.4,-5.961 2.098,-8.911 -0.128,-6.209 -4.386,-11.958 -10.733,-13.526 h -52.33 -23.129 c -0.25,-0.381 -0.51,-0.752 -0.751,-1.145 -6.512,-10.642 -5.17,-18.554 4.547,-25.253 6.227,-4.292 12.797,-7.977 18.248,-13.542 8.322,-8.497 8.861,-13.509 2.507,-24.018 -7.15,-11.829 -7.112,-12.313 3.876,-20.716 2.949,-2.256 6.071,-3.952 1.928,-8.222 -6.095,-6.28 -3.915,-12.408 1.335,-16.985 7.368,-6.423 8.475,-14.664 7.092,-23.878 -1.208,-8.039 -2.988,-15.976 -4.492,-23.963 -4.057,-21.549 1.594,-31.551 21.064,-37.213 20.321,-5.909 40.545,-0.791 60.81,1.165 13.584,1.312 26.957,6.036 40.855,2.598 9.022,-2.233 14.005,-7.75 15.163,-17.854 1.69,-14.735 6.076,-28.817 8.582,-43.315 2.044,-11.8248 7.193,-15.519 17.843,-15.0409 8.925,0.4 21.688,0.5891 36.502,0.645 l 0.007,107.5659 c -1.646,6.993 -8.348,11.552 -15.264,10.831"
       style="fill:#d34e4e;fill-opacity:1;fill-rule:nonzero;stroke:none;stroke-width:0.1"
       id="path76" />
    <path
       d="m 563.128,556.973 c 4.177,-8.391 15.756,-10.72 22.789,-3.595 16.294,16.51 39.315,24.888 57.619,5.869 14.841,-15.422 13.943,-41.668 -1.987,-55.988 -7.823,-7.033 -16.277,-8.601 -25.075,-7.773 -5.833,0.507 -11.877,2.136 -18.217,3.843 -2.03,0.546 -3.982,0.733 -5.813,0.624 -6.896,-0.904 -12.359,-6.896 -12.336,-14.083 l 11.829,-49.528 -0.022,-0.005 7.869,-32.964 h 0.003 l 0.284,-1.189 0.267,-1.121 0.38,0.091 85.439,20.396 c 8.359,-0.941 14.594,-9.3 12.016,-18.107 -4.479,-15.296 -8.022,-30.152 3.743,-43.255 14.311,-15.938 40.558,-16.851 55.987,-2.018 19.03,18.291 10.664,41.317 -5.836,57.622 -6.73,6.651 -5.008,17.357 2.286,22.036 l 52.234,12.469 c 2.741,19.268 2.496,38.237 -0.568,55.981 -9.035,45.724 -26.774,81.077 -54.808,106.757 -57.513,52.681 -123.866,67.093 -194.327,55.895 -6.618,-1.052 -13.102,-2.507 -19.46,-4.316 l 13.63,-57.085 12.074,-50.556"
       style="fill:#ebb044;fill-opacity:1;fill-rule:nonzero;stroke:none;stroke-width:0.1"
       id="path78" />
    <path
       d="m 489.664,356.216 h -0.002 v -2.375 h 0.002 v 1.152 1.223"
       style="fill:#d34e4e;fill-opacity:1;fill-rule:nonzero;stroke:none;stroke-width:0.1"
       id="path80" />
    <path
       d="m 650.665,86.8789 c 12.716,0.6902 6.546,8.6262 0.683,20.9501 -47.568,99.985 9.091,180.58 18.368,191.858 13.904,16.903 24.56,35.311 31.992,54.154 h -53.702 c -8.181,-2.858 -12.341,-12.87 -7.339,-20.904 12.263,-19.689 15.053,-44.028 -7.703,-57.402 -18.452,-10.845 -43.769,-3.862 -53.987,14.963 -8.402,15.477 -1.506,29.104 6.401,42.942 4.553,7.967 0.429,17.546 -7.483,20.401 h -87.84 v -82.343 c 0,-1.144 -0.159,-2.227 -0.4,-3.269 v -0.351 c -2.224,-8.998 -12.848,-13.838 -21.281,-8.585 -19.689,12.265 -44.028,15.058 -57.403,-7.697 -10.847,-18.451 -2.822,-43.341 16.002,-53.562 9.1,-4.941 17.141,-4.633 25.071,-1.997 5.639,1.921 11.178,4.935 16.752,8.115 1.81,1.034 3.705,1.613 5.587,1.809 7.233,1.277 13.64,-2.731 15.264,-10.587 v -0.244 c 0.249,-1.057 0.408,-2.157 0.408,-3.315 V 87.566 c 57.32,0.209 144.985,-1.5351 160.61,-0.6871"
       style="fill:#474ebb;fill-opacity:1;fill-rule:nonzero;stroke:none;stroke-width:0.1"
       id="path82" />
    <path
       d="m 489.647,195.13 v 0.244 c -1.624,7.856 -8.031,11.864 -15.264,10.587 6.916,0.721 13.618,-3.838 15.264,-10.831"
       style="fill:#474ebb;fill-opacity:1;fill-rule:nonzero;stroke:none;stroke-width:0.1"
       id="path84" />
    <path
       d="m 468.325,259.441 c -19.683,12.275 -44.02,15.079 -57.407,-7.67 -10.855,-18.445 -3.888,-43.766 14.932,-53.996 9.242,-5.025 17.828,-4.587 26.194,-1.738 -7.93,-2.636 -15.971,-2.944 -25.071,1.997 -18.824,10.221 -26.849,35.111 -16.002,53.562 13.375,22.755 37.714,19.962 57.403,7.697 8.433,-5.253 19.057,-0.413 21.281,8.585 v 0.351 c -2.114,-9.131 -12.835,-14.085 -21.33,-8.788"
       style="fill:#474ebb;fill-opacity:1;fill-rule:nonzero;stroke:none;stroke-width:0.1"
       id="path86" />
    <path
       d="m 568.409,497.672 c -13.388,22.749 -37.724,19.944 -57.407,7.67 -8.495,-5.298 -19.217,-0.344 -21.331,8.787 -0.242,1.043 -0.4,2.126 -0.4,3.269 v 107.389 c -29.326,-1.323 -57.857,-10.158 -85.236,-23.581 -7.363,-3.609 -14.602,-7.555 -21.775,-11.616 -50.344,-28.511 -78.352,-72.283 -75.977,-136.42 1.333,-35.995 -14.693,-62.194 -38.368,-84.213 -4.281,-3.981 -8.535,-7.941 -12.04,-12.717 -0.462,-0.631 -0.909,-1.278 -1.344,-1.939 h 23.129 52.33 c 6.346,1.568 10.605,7.317 10.733,13.526 0.053,2.595 -0.598,5.269 -2.146,7.754 -5.962,9.572 -9.672,20.242 -9.309,30.218 0.383,10.544 5.319,20.313 17.012,27.185 18.452,10.844 43.769,3.863 53.988,-14.963 2.776,-5.114 3.875,-10.025 3.826,-14.81 -0.1,-9.694 -4.934,-18.866 -10.228,-28.132 -1.098,-1.923 -1.672,-3.94 -1.829,-5.934 -0.527,-6.665 3.795,-13.076 10.456,-14.844 h 86.778 v 1.915 81.5 c 0,1.157 0.159,2.256 0.407,3.311 1.646,6.995 8.35,11.556 15.269,10.834 1.88,-0.196 3.774,-0.776 5.584,-1.808 5.573,-3.181 11.113,-6.196 16.751,-8.116 8.366,-2.849 16.952,-3.287 26.196,1.739 18.818,10.229 25.786,35.55 14.931,53.996"
       style="fill:#7fc5a3;fill-opacity:1;fill-rule:nonzero;stroke:none;stroke-width:0.1"
       id="path88" />
  </g>
</svg>
